<svg xmlns="http://www.w3.org/2000/svg" width="1702" height="584" viewBox="0 0 1702 584"><defs><style>
            path {
                fill: none;
                stroke-linecap: round;
                stroke-linejoin: round;
            }
            
                path {
                    stroke: #555555;
                    stroke-width: 2pxpx;
                }
            
        </style></defs><rect width="100%" height="100%" fill="rgb(255, 255, 255)"/><g transform="translate(-268, -176)"><g><rect x="1052" y="449" width="154" height="61" rx="5px" ry="5px" fill="rgb(240, 240, 240)" stroke="rgb(208, 208, 208)" stroke-width="2px"/><text x="1062" y="484.5" fill="rgb(51, 51, 51)" font-family="Arial, sans-serif" font-size="14px">ГЛВЫОВ</text></g><g><rect x="1246" y="447" width="158" height="61" rx="5px" ry="5px" fill="rgb(240, 240, 240)" stroke="rgb(187, 84, 84)" stroke-width="2px"/><text x="1256" y="482.5" fill="rgb(51, 51, 51)" font-family="Arial, sans-serif" font-size="14px">Текст</text></g><g><rect x="1383" y="562" width="158" height="61" rx="5px" ry="5px" fill="rgb(240, 240, 240)" stroke="rgb(187, 84, 84)" stroke-width="2px"/><text x="1393" y="597.5" fill="rgb(51, 51, 51)" font-family="Arial, sans-serif" font-size="14px">Текст</text></g><g><rect x="1397" y="333" width="158" height="61" rx="5px" ry="5px" fill="rgb(240, 240, 240)" stroke="rgb(187, 84, 84)" stroke-width="2px"/><text x="1407" y="368.5" fill="rgb(51, 51, 51)" font-family="Arial, sans-serif" font-size="14px">Текст</text></g><g><rect x="1453" y="450" width="158" height="61" rx="5px" ry="5px" fill="rgb(240, 240, 240)" stroke="rgb(187, 84, 84)" stroke-width="2px"/><text x="1463" y="485.5" fill="rgb(51, 51, 51)" font-family="Arial, sans-serif" font-size="14px">Текст</text></g><g><rect x="1653" y="450" width="162" height="61" rx="5px" ry="5px" fill="rgb(240, 240, 240)" stroke="rgb(187, 84, 84)" stroke-width="2px"/><text x="1663" y="485.5" fill="rgb(51, 51, 51)" font-family="Arial, sans-serif" font-size="14px">Текст</text></g><g><rect x="1758" y="586" width="162" height="61" rx="5px" ry="5px" fill="rgb(240, 240, 240)" stroke="rgb(187, 84, 84)" stroke-width="2px"/><text x="1768" y="621.5" fill="rgb(51, 51, 51)" font-family="Arial, sans-serif" font-size="14px">Текст</text></g><g><rect x="694" y="421" width="158" height="61" rx="5px" ry="5px" fill="rgb(22, 134, 254)" stroke="rgb(208, 208, 208)" stroke-width="2px"/><text x="704" y="456.5" fill="rgb(51, 51, 51)" font-family="Arial, sans-serif" font-size="14px">Текст</text></g><g><rect x="318" y="413" width="154" height="61" rx="5px" ry="5px" fill="rgb(240, 240, 240)" stroke="rgb(208, 208, 208)" stroke-width="2px"/><text x="328" y="448.5" fill="rgb(51, 51, 51)" font-family="Arial, sans-serif" font-size="14px">Текст</text></g><g><rect x="513" y="325" width="158" height="61" rx="5px" ry="5px" fill="rgb(22, 134, 254)" stroke="rgb(208, 208, 208)" stroke-width="2px"/><text x="523" y="360.5" fill="rgb(51, 51, 51)" font-family="Arial, sans-serif" font-size="14px">Текст</text></g><g><rect x="571" y="604" width="162" height="61" rx="5px" ry="5px" fill="rgb(22, 134, 254)" stroke="rgb(208, 208, 208)" stroke-width="2px"/><text x="581" y="639.5" fill="rgb(51, 51, 51)" font-family="Arial, sans-serif" font-size="14px">Все плохо</text></g><g><rect x="702" y="226" width="200" height="95" rx="5px" ry="5px" fill="rgb(22, 134, 254)" stroke="rgb(208, 208, 208)" stroke-width="2px"/><text x="712" y="278.5" fill="rgb(51, 51, 51)" font-family="Arial, sans-serif" font-size="14px">Привет как жизнь?</text></g><g><rect x="795" y="610" width="162" height="61" rx="5px" ry="5px" fill="rgb(22, 134, 254)" stroke="rgb(208, 208, 208)" stroke-width="2px"/><text x="805" y="645.5" fill="rgb(51, 51, 51)" font-family="Arial, sans-serif" font-size="14px">Развивается шиза</text></g><g><rect x="1035" y="649" width="162" height="61" rx="5px" ry="5px" fill="rgb(22, 134, 254)" stroke="rgb(208, 208, 208)" stroke-width="2px"/><text x="1045" y="684.5" fill="rgb(51, 51, 51)" font-family="Arial, sans-serif" font-size="14px">Брух</text></g></g></svg>