<svg xmlns="http://www.w3.org/2000/svg" width="939" height="765" viewBox="0 0 939 765"><defs><style>
            path {
                fill: none;
                stroke-linecap: round;
                stroke-linejoin: round;
            }
            
                path {
                    stroke: #555555;
                    stroke-width: 2pxpx;
                }
            
        </style></defs><rect width="100%" height="100%" fill="rgb(255, 255, 255)"/><g transform="translate(-771, -149)"><g><rect x="821" y="586" width="154" height="61" rx="5px" ry="5px" fill="rgb(240, 240, 240)" stroke="rgb(208, 208, 208)" stroke-width="2px"/><text x="831" y="621.5" fill="rgb(51, 51, 51)" font-family="Arial, sans-serif" font-size="14px">Главная тема</text></g><g><rect x="973" y="805" width="152" height="59" rx="5px" ry="5px" fill="rgb(255, 255, 255)" stroke="rgb(204, 204, 204)" stroke-width="1px"/><text x="983" y="839.5" fill="rgb(51, 51, 51)" font-family="Arial, sans-serif" font-size="14px">Привет</text></g><g><rect x="1222" y="587" width="152" height="59" rx="5px" ry="5px" fill="rgb(255, 255, 255)" stroke="rgb(204, 204, 204)" stroke-width="1px"/><text x="1232" y="621.5" fill="rgb(51, 51, 51)" font-family="Arial, sans-serif" font-size="14px">Как дела?</text></g><g><rect x="887" y="402" width="152" height="59" rx="5px" ry="5px" fill="rgb(255, 255, 255)" stroke="rgb(204, 204, 204)" stroke-width="1px"/><text x="897" y="436.5" fill="rgb(51, 51, 51)" font-family="Arial, sans-serif" font-size="14px">Да</text></g><g><rect x="1105" y="396" width="200" height="100" rx="15px" ry="15px" fill="rgb(250, 0, 0)" stroke="rgb(0, 191, 255)" stroke-width="3px"/><text x="1115" y="451" fill="rgb(51, 51, 51)" font-family="Arial, sans-serif" font-size="14px">Нет</text></g><g><rect x="1460" y="409" width="200" height="100" rx="15px" ry="15px" fill="rgb(250, 0, 0)" stroke="rgb(0, 191, 255)" stroke-width="3px"/><text x="1470" y="464" fill="rgb(51, 51, 51)" font-family="Arial, sans-serif" font-size="14px">Текст</text></g><g><rect x="1402" y="199" width="200" height="100" rx="15px" ry="15px" fill="rgb(250, 0, 0)" stroke="rgb(0, 191, 255)" stroke-width="3px"/><text x="1412" y="254" fill="rgb(51, 51, 51)" font-family="Arial, sans-serif" font-size="14px">Хай</text></g></g></svg>