<svg xmlns="http://www.w3.org/2000/svg" width="3118" height="567" viewBox="0 0 3118 567"><defs><style>
            path {
                fill: none;
                stroke-linecap: round;
                stroke-linejoin: round;
            }
            
                path {
                    stroke: #555555;
                    stroke-width: 2pxpx;
                }
            
        </style></defs><rect width="100%" height="100%" fill="rgb(245, 249, 255)"/><g transform="translate(1609, -303)"><g><rect x="-1559" y="507" width="200" height="100" rx="50px" ry="50px" fill="rgb(25, 118, 210)" stroke="rgb(21, 101, 192)" stroke-width="2px"/><text x="-1549" y="562" fill="rgb(51, 51, 51)" font-family="Arial, sans-serif" font-size="14px">Кошмар, а не работа</text></g><g><rect x="-1295" y="526" width="166" height="70" rx="50px" ry="50px" fill="rgb(227, 242, 253)" stroke="rgb(144, 202, 249)" stroke-width="1px"/><text x="-1285" y="566" fill="rgb(51, 51, 51)" font-family="Arial, sans-serif" font-size="14px">Рецепт</text></g><g><rect x="-976" y="353" width="164" height="70" rx="50px" ry="50px" fill="rgb(227, 242, 253)" stroke="rgb(144, 202, 249)" stroke-width="1px"/><text x="-966" y="393" fill="rgb(51, 51, 51)" font-family="Arial, sans-serif" font-size="14px">Мука</text></g><g><rect x="-987" y="459" width="164" height="70" rx="50px" ry="50px" fill="rgb(227, 242, 253)" stroke="rgb(144, 202, 249)" stroke-width="1px"/><text x="-977" y="499" fill="rgb(51, 51, 51)" font-family="Arial, sans-serif" font-size="14px">Вода</text></g><g><rect x="-992" y="641" width="164" height="70" rx="50px" ry="50px" fill="rgb(227, 242, 253)" stroke="rgb(144, 202, 249)" stroke-width="1px"/><text x="-982" y="681" fill="rgb(51, 51, 51)" font-family="Arial, sans-serif" font-size="14px">Дрожьи</text></g><g><rect x="1295" y="681" width="164" height="70" rx="50px" ry="50px" fill="rgb(227, 242, 253)" stroke="rgb(144, 202, 249)" stroke-width="1px"/><text x="1305" y="721" fill="rgb(51, 51, 51)" font-family="Arial, sans-serif" font-size="14px">Текст</text></g><g><rect x="-992" y="545" width="164" height="70" rx="50px" ry="50px" fill="rgb(227, 242, 253)" stroke="rgb(144, 202, 249)" stroke-width="1px"/><text x="-982" y="585" fill="rgb(51, 51, 51)" font-family="Arial, sans-serif" font-size="14px">Яийцо</text></g><g><rect x="-1463" y="750" width="182" height="70" rx="50px" ry="50px" fill="rgb(227, 242, 253)" stroke="rgb(144, 202, 249)" stroke-width="1px"/><text x="-1453" y="790" fill="rgb(51, 51, 51)" font-family="Arial, sans-serif" font-size="14px">Текст</text></g></g></svg>